Patient4_TMGait_0pt8_01_left_15_EMG.mot
version=1
nRows=19
nColumns=33
inDegrees=no
endheader
time	1LAddLong	2LGlutMax	3LGlutMed	4LIliopsoas	5LSemiMemb	6LBicFemLong	7LRecFem	8LVastMed	9LVastLat	10LGasMed	11LTibAnt	12lTibPost	13LPeroneusLong	14LSol	15LExtDigLong	16LFlexDigLong	17RAddLong	18RGlutMax	19RGlutMed	20RIliopsoas	21RSemiMemb	22RBicFemLong	23RRecFem	24RVastMed	25RVastLat	26RGasMed	27RTibAnt	28RTibPost	29RPeroneusLong	30RSol	31RExtDigLong	32RFlexDigLong
17.18	0.016937	0.53192	-0.078888	-0.004272	0.026245	-0.049286	-0.064392	0.005646	0.093842	-0.036011	0.032806	-0.002594	0.020905	-0.084076	0.005188	0.00412	0.025024	-0.48447	0.35156	-0.005493	-0.057983	-0.072937	0.003204	0.044098	-0.1973	0.00946	0.25085	-0.020142	0.042267	-0.80673	-0.000305	0.001373
17.181	0.012817	0.46402	-0.073547	0.006409	0.021667	-0.04364	-0.084686	0.008545	0.038605	-0.032196	0.00885	-0.007324	0.019989	-0.1059	-0.039215	-0.00061	0.034637	-0.48233	0.44907	-0.014801	-0.073547	-0.10483	-0.061493	0.028687	-0.1593	0.006714	-0.4451	-0.019684	0.019684	-0.12909	-0.000305	-0.011902
17.182	0.005035	0.41641	-0.083008	-0.017395	-0.007324	-0.039215	-0.074615	0.005188	-0.040741	-0.042114	0.020905	-0.004425	0.007019	-0.089569	-0.03952	-0.006561	0.053558	-0.45364	0.51285	-0.067291	-0.009155	-0.14725	-0.13626	-0.056	-0.13428	0.003662	-0.92758	-0.023804	0.066681	0.13596	-0.00061	-0.007477
17.183	0.006561	0.37979	-0.17395	0.015564	-0.016327	-0.048218	-0.081329	0.00824	0.12299	-0.050659	0.045471	-0.008087	-0.009918	-0.059509	-0.028687	0.001373	0.034485	-0.42343	0.17517	-0.016632	-0.15656	-0.043793	-0.16525	-0.068054	-0.12924	-0.00061	-1.0893	-0.024872	-0.005798	0.11948	0.001373	-0.014038
17.184	0.005798	0.31693	-0.20081	0.012207	-0.031738	-0.051117	-0.060883	0.012207	0.28336	-0.019379	0.05188	-0.00824	-0.00473	-0.056458	-0.005951	-0.001678	-0.050049	-0.5397	-0.23605	-0.035858	-0.46677	0.17471	-0.48477	-0.041962	-0.093842	-0.047455	-0.66437	-0.024567	-0.060272	0.17731	0.003967	-0.014801
17.185	0.006866	0.3006	-0.093231	-0.011139	-0.039063	-0.048828	-0.054474	0.006866	0.19852	-0.063477	0.011139	-0.005035	0.002136	-0.065918	0.00351	0.006866	-0.049744	-0.53192	0.61905	-0.035248	-0.3064	0.12817	-0.58563	-0.091858	-0.019684	-0.0177	-0.46707	-0.019684	-0.097504	0.30579	-0.002441	-0.006714
17.186	-0.002594	0.26764	0.005035	0.000153	-0.007935	-0.054321	-0.06546	0.009308	0.009308	-0.059967	-0.032959	-0.010681	0.016479	-0.088043	-0.009766	0.009003	0	-0.51437	1.0487	-0.001984	0.097198	0.063782	-0.35217	-0.035858	0.039063	0.005493	-0.76797	-0.020905	-0.076752	0.17716	-0.001678	-0.009155
17.187	-0.003357	0.22659	0.064545	0.001831	0.010986	-0.054016	-0.1001	0.011292	-0.096436	-0.061035	-0.012207	-0.006104	0.009155	-0.06958	-0.019531	-0.001526	-0.026398	-0.51117	1.0577	0.032349	0.36163	0.017548	-0.23712	-0.00824	0.07843	0.008392	-0.74814	-0.016022	0.013275	-0.089417	0.001068	-0.018463
17.188	-0.005341	0.23514	0.043488	0.015717	0.066071	-0.036926	-0.13397	0.013733	-0.086517	-0.045166	-0.016174	0.004578	0.04776	-0.066681	0.001373	-0.001068	-0.022278	-0.54749	0.10513	0.011444	0.19394	-0.047607	-0.13138	0.052795	0.11261	0.010071	-0.63202	-0.015564	0.008392	-0.15228	0.001678	-0.020905
17.189	-0.008698	0.30106	-0.034637	0.011292	0.045013	-0.037079	-0.1622	0.009308	-0.017853	-0.03891	-0.007629	0.000153	0.054932	-0.063782	0.015411	0.020447	-0.031738	-0.59479	0.1384	0.046997	-0.074615	-0.02594	-0.16296	0.12146	0.033112	-0.000763	-0.3656	-0.024719	0.22903	-0.10407	0.002747	-0.0177
17.19	-0.005798	0.28015	-0.047302	0.011139	0.02533	-0.045929	-0.15915	0.011139	0.076447	-0.03952	-0.00885	-0.007019	0.05188	-0.063782	0.019836	-0.00351	-0.026398	-0.57342	0.21423	0.073853	0.075073	-0.15167	-0.052185	0.040588	0.001068	-0.004272	-0.033569	-0.01297	0.21255	-0.022736	0.002594	-0.015106
17.191	0.005951	0.30472	-0.029449	0.006104	0.000763	-0.037689	-0.15274	0.006714	0.14816	-0.050354	-0.000458	-0.005646	0.044098	-0.079803	0.011902	0.009155	-0.0177	-0.54504	0.17044	0.058136	-0.061798	0.051117	0.020599	-0.032959	0.024109	-0.006714	0.14847	-0.022583	0.10193	0.14969	0.00061	-0.020752
17.192	0.025024	0.30609	-0.021515	-0.003204	-0.003967	-0.057526	-0.12344	0.00412	0.21927	-0.052643	-0.006104	0.000153	0.0383	-0.06546	0.000305	0.001984	-0.040894	-0.50461	-0.017548	0.024109	-0.027466	0.13763	-0.08316	-0.063782	-0.084076	-0.015411	0.15564	-0.016022	0.066223	0.13306	0.010834	-0.014496
17.193	0.020599	0.30945	-0.083923	0.010529	0.023346	-0.000763	-0.087585	0.005646	0.2211	-0.054321	-0.000305	-0.002289	0.020599	-0.057068	0.003052	-0.008392	-0.016937	-0.50491	0.075073	-0.00885	-0.12497	0.12528	-0.010681	-0.17685	-0.12909	-0.029907	0.12878	-0.016785	-0.043488	0.084686	0.004883	-0.010986
17.194	0.014954	0.27161	-0.06485	0.00412	0.015869	-0.011902	-0.080109	0.00473	0.2269	-0.079193	0.011139	0.002899	0.017242	-0.042267	0.003357	0.007782	0	-0.63538	0.29617	0.010071	0.052948	0.08255	-0.16052	-0.28595	-0.15182	-0.036621	0.22201	-0.005798	-0.046387	-0.1648	-0.001221	-0.001526
17.195	0.014648	0.28641	-0.054626	0.000916	-0.002899	-0.018005	-0.041046	0.006714	0.21683	-0.061646	0.018158	0.001221	0.021362	-0.075989	0.009766	-0.01358	-0.026245	-0.55512	0.056458	-0.001221	0.092468	0.019379	-0.22919	-0.26474	-0.14008	-0.037537	0.26596	-0.019379	-0.084229	-0.31967	0.008698	-0.00946
17.196	0.007172	0.31143	-0.071869	-0.000916	-0.026398	-0.025787	-0.027618	0.00412	0.21118	-0.066833	0.007324	0.001526	0.018921	-0.057068	0.012512	-0.008698	-0.04715	-0.56656	0.23438	0.005341	0.003815	-0.063477	-0.35385	-0.22339	-0.28122	-0.031738	0.37079	-0.003204	-0.072174	-0.11124	0.005646	-0.011292
17.197	0.00885	0.30624	-0.063019	-0.004425	-0.03891	-0.022125	-0.026093	0.00885	0.15106	-0.036621	0.007172	0.000763	0.006866	-0.063477	0.015259	-0.008087	-0.033417	-0.55435	0.38361	-0.032959	-0.036316	-0.066071	-0.40222	-0.086365	-0.12054	-0.018311	0.40634	-0.024109	-0.11276	-0.025024	0.00061	-0.002899
17.198	0.006714	0.3093	-0.076599	-0.003204	-0.031433	-0.031891	-0.025482	0.008698	0.11551	-0.032349	0.006256	0.003052	0.007172	-0.064392	0.020752	0.008392	-0.011902	-0.513	0.27145	-0.007935	-0.054626	-0.076599	-0.28946	0.060425	0.006409	-0.021515	0.21668	-0.012817	-0.17777	0.091248	0.003967	-0.005493
